<?xml version="1.0" encoding="utf-8"?>
<svg version="1.1" xmlns:xlink="http://www.w3.org/1999/xlink" width="50px" height="36px" xmlns="http://www.w3.org/2000/svg">
  <g transform="matrix(1 0 0 1 -1481 -1014 )">
    <path d="M 1481.5 1017.66665649414  A 3.16665649414063 3.16665649414063 0 0 1 1484.66665649414 1014.5 L 1527.33334350586 1014.5  A 3.16665649414063 3.16665649414063 0 0 1 1530.5 1017.66665649414 L 1530.5 1046.33334350586  A 3.16665649414063 3.16665649414063 0 0 1 1527.33334350586 1049.5 L 1484.66665649414 1049.5  A 3.16665649414063 3.16665649414063 0 0 1 1481.5 1046.33334350586 L 1481.5 1017.66665649414  Z " fill-rule="nonzero" fill="#ffffff" stroke="none" />
    <path d="M 1481.5 1017.66665649414  A 3.16665649414063 3.16665649414063 0 0 1 1484.66665649414 1014.5 L 1527.33334350586 1014.5  A 3.16665649414063 3.16665649414063 0 0 1 1530.5 1017.66665649414 L 1530.5 1046.33334350586  A 3.16665649414063 3.16665649414063 0 0 1 1527.33334350586 1049.5 L 1484.66665649414 1049.5  A 3.16665649414063 3.16665649414063 0 0 1 1481.5 1046.33334350586 L 1481.5 1017.66665649414  Z " stroke-width="1" stroke="#cccccc" fill="none" />
  </g>
</svg>