<?xml version="1.0" encoding="utf-8"?>
<svg version="1.1" xmlns:xlink="http://www.w3.org/1999/xlink" width="60px" height="46px" xmlns="http://www.w3.org/2000/svg">
  <defs>
    <filter x="1476px" y="1009px" width="60px" height="46px" filterUnits="userSpaceOnUse" id="filter120">
      <feOffset dx="0" dy="0" in="SourceAlpha" result="shadowOffsetInner" />
      <feGaussianBlur stdDeviation="2.5" in="shadowOffsetInner" result="shadowGaussian" />
      <feComposite in2="shadowGaussian" operator="atop" in="SourceAlpha" result="shadowComposite" />
      <feColorMatrix type="matrix" values="0 0 0 0 0  0 0 0 0 0.6  0 0 0 0 1  0 0 0 0.498039215686275 0  " in="shadowComposite" />
    </filter>
    <g id="widget121">
      <path d="M 1482 1017.66665649414  A 2.66665649414063 2.66665649414063 0 0 1 1484.66665649414 1015 L 1527.33334350586 1015  A 2.66665649414063 2.66665649414063 0 0 1 1530 1017.66665649414 L 1530 1046.33334350586  A 2.66665649414063 2.66665649414063 0 0 1 1527.33334350586 1049 L 1484.66665649414 1049  A 2.66665649414063 2.66665649414063 0 0 1 1482 1046.33334350586 L 1482 1017.66665649414  Z " fill-rule="nonzero" fill="#ffffff" stroke="none" />
      <path d="M 1481.5 1017.66665649414  A 3.16665649414063 3.16665649414063 0 0 1 1484.66665649414 1014.5 L 1527.33334350586 1014.5  A 3.16665649414063 3.16665649414063 0 0 1 1530.5 1017.66665649414 L 1530.5 1046.33334350586  A 3.16665649414063 3.16665649414063 0 0 1 1527.33334350586 1049.5 L 1484.66665649414 1049.5  A 3.16665649414063 3.16665649414063 0 0 1 1481.5 1046.33334350586 L 1481.5 1017.66665649414  Z " stroke-width="1" stroke="#0099ff" fill="none" stroke-opacity="0.8" />
    </g>
  </defs>
  <g transform="matrix(1 0 0 1 -1476 -1009 )">
    <use xlink:href="#widget121" filter="url(#filter120)" />
    <use xlink:href="#widget121" />
  </g>
</svg>