<?xml version="1.0" encoding="utf-8"?>
<svg version="1.1" xmlns:xlink="http://www.w3.org/1999/xlink" width="15px" height="15px" xmlns="http://www.w3.org/2000/svg">
  <defs>
    <mask fill="white" id="clip122">
      <path d="M 0 7.5  C 0 3.30000000000001  3.29999999999995 0  7.5 0  C 11.7 0  15 3.30000000000001  15 7.5  C 15 9.43987129967087  13.1245290587813 12.5071557978836  13.1245290587813 12.5071557978836  C 13.1245290587813 12.5071557978836  9.76012870032923 15  7.5 15  C 3.29999999999995 15  0 11.7  0 7.5  Z " fill-rule="evenodd" />
    </mask>
  </defs>
  <g transform="matrix(1 0 0 1 -1667 -193 )">
    <path d="M 0 7.5  C 0 3.30000000000001  3.29999999999995 0  7.5 0  C 11.7 0  15 3.30000000000001  15 7.5  C 15 9.43987129967087  13.1245290587813 12.5071557978836  13.1245290587813 12.5071557978836  C 13.1245290587813 12.5071557978836  9.76012870032923 15  7.5 15  C 3.29999999999995 15  0 11.7  0 7.5  Z " fill-rule="nonzero" fill="#ff3300" stroke="none" transform="matrix(1 0 0 1 1667 193 )" />
    <path d="M 0 7.5  C 0 3.30000000000001  3.29999999999995 0  7.5 0  C 11.7 0  15 3.30000000000001  15 7.5  C 15 9.43987129967087  13.1245290587813 12.5071557978836  13.1245290587813 12.5071557978836  C 13.1245290587813 12.5071557978836  9.76012870032923 15  7.5 15  C 3.29999999999995 15  0 11.7  0 7.5  Z " stroke-width="2" stroke="#ff3300" fill="none" transform="matrix(1 0 0 1 1667 193 )" mask="url(#clip122)" />
  </g>
</svg>