<?xml version="1.0" encoding="utf-8"?>
<svg version="1.1" xmlns:xlink="http://www.w3.org/1999/xlink" width="15px" height="15px" xmlns="http://www.w3.org/2000/svg">
  <g transform="matrix(1 0 0 1 -845 -669 )">
    <path d="M 852.5 669  C 856.7 669  860 672.3  860 676.5  C 860 680.7  856.7 684  852.5 684  C 848.3 684  845 680.7  845 676.5  C 845 672.3  848.3 669  852.5 669  Z " fill-rule="nonzero" fill="#ffffff" stroke="none" />
    <path d="M 852.5 669.5  C 856.42 669.5  859.5 672.58  859.5 676.5  C 859.5 680.42  856.42 683.5  852.5 683.5  C 848.58 683.5  845.5 680.42  845.5 676.5  C 845.5 672.58  848.58 669.5  852.5 669.5  Z " stroke-width="1" stroke="#797979" fill="none" />
  </g>
</svg>