<?xml version="1.0" encoding="utf-8"?>
<svg version="1.1" xmlns:xlink="http://www.w3.org/1999/xlink" width="15px" height="15px" xmlns="http://www.w3.org/2000/svg">
  <g transform="matrix(1 0 0 1 -189 -351 )">
    <path d="M 196.5 351  C 200.7 351  204 354.3  204 358.5  C 204 362.7  200.7 366  196.5 366  C 192.3 366  189 362.7  189 358.5  C 189 354.3  192.3 351  196.5 351  Z " fill-rule="nonzero" fill="#ff3300" stroke="none" />
    <path d="M 196.5 351.5  C 200.42 351.5  203.5 354.58  203.5 358.5  C 203.5 362.42  200.42 365.5  196.5 365.5  C 192.58 365.5  189.5 362.42  189.5 358.5  C 189.5 354.58  192.58 351.5  196.5 351.5  Z " stroke-width="1" stroke="#ff3300" fill="none" />
  </g>
</svg>