<?xml version="1.0" encoding="utf-8"?>
<svg version="1.1" xmlns:xlink="http://www.w3.org/1999/xlink" width="15px" height="14px" xmlns="http://www.w3.org/2000/svg">
  <g transform="matrix(1 0 0 1 -1618 -1048 )">
    <path d="M 1625.5 1048  C 1629.7 1048  1633 1051.08  1633 1055  C 1633 1058.92  1629.7 1062  1625.5 1062  C 1621.3 1062  1618 1058.92  1618 1055  C 1618 1051.08  1621.3 1048  1625.5 1048  Z " fill-rule="nonzero" fill="#ff3300" stroke="none" />
    <path d="M 1625.5 1048.5  C 1629.42 1048.5  1632.5 1051.36  1632.5 1055  C 1632.5 1058.64  1629.42 1061.5  1625.5 1061.5  C 1621.58 1061.5  1618.5 1058.64  1618.5 1055  C 1618.5 1051.36  1621.58 1048.5  1625.5 1048.5  Z " stroke-width="1" stroke="#ff3300" fill="none" />
  </g>
</svg>