<?xml version="1.0" encoding="utf-8"?>
<svg version="1.1" xmlns:xlink="http://www.w3.org/1999/xlink" width="15px" height="15px" xmlns="http://www.w3.org/2000/svg">
  <defs>
    <mask fill="white" id="clip119">
      <path d="M 0 7.5  C 0 3.30000000000001  3.30000000000001 0  7.5 0  C 11.7 0  15 3.30000000000001  15 7.5  C 15 7.64087011763155  14.9962876141079 7.78072776638345  14.9889533989015 7.91948238967774  C 14.7776202034136 11.9176549418146  11.5591298823684 15  7.5 15  C 3.30000000000001 15  0 11.7  0 7.5  Z " fill-rule="evenodd" />
    </mask>
  </defs>
  <g transform="matrix(1 0 0 1 -314 -290 )">
    <path d="M 0 7.5  C 0 3.30000000000001  3.30000000000001 0  7.5 0  C 11.7 0  15 3.30000000000001  15 7.5  C 15 7.64087011763155  14.9962876141079 7.78072776638345  14.9889533989015 7.91948238967774  C 14.7776202034136 11.9176549418146  11.5591298823684 15  7.5 15  C 3.30000000000001 15  0 11.7  0 7.5  Z " fill-rule="nonzero" fill="#ff3300" stroke="none" transform="matrix(1 0 0 1 314 290 )" />
    <path d="M 0 7.5  C 0 3.30000000000001  3.30000000000001 0  7.5 0  C 11.7 0  15 3.30000000000001  15 7.5  C 15 7.64087011763155  14.9962876141079 7.78072776638345  14.9889533989015 7.91948238967774  C 14.7776202034136 11.9176549418146  11.5591298823684 15  7.5 15  C 3.30000000000001 15  0 11.7  0 7.5  Z " stroke-width="2" stroke="#ff3300" fill="none" transform="matrix(1 0 0 1 314 290 )" mask="url(#clip119)" />
  </g>
</svg>