<?xml version="1.0" encoding="utf-8"?>
<svg version="1.1" xmlns:xlink="http://www.w3.org/1999/xlink" width="90px" height="90px" xmlns="http://www.w3.org/2000/svg">
  <g transform="matrix(1 0 0 1 -1397 -256 )">
    <path d="M 1397 256  L 1487 256  L 1487 346  L 1397 346  L 1397 256  " fill-rule="nonzero" fill="#cccccc" stroke="none" />
    <path d="M 1403 262  L 1481 262  L 1481 340  L 1403 340  L 1403 262  " fill-rule="nonzero" fill="#ffffff" stroke="none" />
    <path d="M 1450.55 283  C 1446.77 283  1443.8 280.03  1443.8 276.25  C 1443.8 272.47  1446.77 269.5  1450.55 269.5  C 1454.33 269.5  1457.3 272.47  1457.3 276.25  C 1457.3 280.03  1454.33 283  1450.55 283  " fill-rule="nonzero" fill="#cccccc" stroke="none" />
    <path d="M 1406 338  L 1406 297.85  L 1424.25 279.6  L 1449.8 294.2  L 1464.4 290.55  L 1479 294.2  L 1479 338  L 1406 338  " fill-rule="nonzero" fill="#169bd5" stroke="none" />
  </g>
</svg>