<?xml version="1.0" encoding="utf-8"?>
<svg version="1.1" xmlns:xlink="http://www.w3.org/1999/xlink" width="116px" height="116px" xmlns="http://www.w3.org/2000/svg">
  <g transform="matrix(1 0 0 1 -1673 -436 )">
    <path d="M 1673 436  L 1789 436  L 1789 552  L 1673 552  L 1673 436  " fill-rule="nonzero" fill="#cccccc" stroke="none" />
    <path d="M 1681 444  L 1781 444  L 1781 544  L 1681 544  L 1681 444  " fill-rule="nonzero" fill="#ffffff" stroke="none" />
    <path d="M 1742.02 470.8  C 1737.148 470.8  1733.32 466.972  1733.32 462.1  C 1733.32 457.228  1737.148 453.4  1742.02 453.4  C 1746.892 453.4  1750.72 457.228  1750.72 462.1  C 1750.72 466.972  1746.892 470.8  1742.02 470.8  " fill-rule="nonzero" fill="#cccccc" stroke="none" />
    <path d="M 1684 541  L 1684 489.3  L 1707.5 465.8  L 1740.4 484.6  L 1759.2 479.9  L 1778 484.6  L 1778 541  L 1684 541  " fill-rule="nonzero" fill="#169bd5" stroke="none" />
  </g>
</svg>