<?xml version="1.0" encoding="utf-8"?>
<svg version="1.1" xmlns:xlink="http://www.w3.org/1999/xlink" width="25px" height="21px" xmlns="http://www.w3.org/2000/svg">
  <g transform="matrix(1 0 0 1 -1326 -560 )">
    <path d="M 1326.5 563.666656494141  A 3.16665649414063 3.16665649414063 0 0 1 1329.66665649414 560.5 L 1347.33334350586 560.5  A 3.16665649414063 3.16665649414063 0 0 1 1350.5 563.666656494141 L 1350.5 577.333343505859  A 3.16665649414063 3.16665649414063 0 0 1 1347.33334350586 580.5 L 1329.66665649414 580.5  A 3.16665649414063 3.16665649414063 0 0 1 1326.5 577.333343505859 L 1326.5 563.666656494141  Z " fill-rule="nonzero" fill="#ffffff" stroke="none" />
    <path d="M 1326.5 563.666656494141  A 3.16665649414063 3.16665649414063 0 0 1 1329.66665649414 560.5 L 1347.33334350586 560.5  A 3.16665649414063 3.16665649414063 0 0 1 1350.5 563.666656494141 L 1350.5 577.333343505859  A 3.16665649414063 3.16665649414063 0 0 1 1347.33334350586 580.5 L 1329.66665649414 580.5  A 3.16665649414063 3.16665649414063 0 0 1 1326.5 577.333343505859 L 1326.5 563.666656494141  Z " stroke-width="1" stroke="#cccccc" fill="none" />
  </g>
</svg>