<?xml version="1.0" encoding="utf-8"?>
<svg version="1.1" xmlns:xlink="http://www.w3.org/1999/xlink" width="15px" height="15px" xmlns="http://www.w3.org/2000/svg">
  <defs>
    <mask fill="white" id="clip124">
      <path d="M 0 7.5  C 0 3.30000000000001  3.29999999999995 0  7.5 0  C 11.7 0  15 3.30000000000001  15 7.5  C 15 11.7  11.7 15  7.5 15  C 3.47740502149122 15  0.280385061407173 11.9728915991095  0.0174822933969381 8.02721697097769  C 0.00588772037679064 7.85320430106162  0 7.67740502149127  0 7.5  Z " fill-rule="evenodd" />
    </mask>
  </defs>
  <g transform="matrix(1 0 0 1 -1094 -176 )">
    <path d="M 0 7.5  C 0 3.30000000000001  3.29999999999995 0  7.5 0  C 11.7 0  15 3.30000000000001  15 7.5  C 15 11.7  11.7 15  7.5 15  C 3.47740502149122 15  0.280385061407173 11.9728915991095  0.0174822933969381 8.02721697097769  C 0.00588772037679064 7.85320430106162  0 7.67740502149127  0 7.5  Z " fill-rule="nonzero" fill="#ff3300" stroke="none" transform="matrix(1 0 0 1 1094 176 )" />
    <path d="M 0 7.5  C 0 3.30000000000001  3.29999999999995 0  7.5 0  C 11.7 0  15 3.30000000000001  15 7.5  C 15 11.7  11.7 15  7.5 15  C 3.47740502149122 15  0.280385061407173 11.9728915991095  0.0174822933969381 8.02721697097769  C 0.00588772037679064 7.85320430106162  0 7.67740502149127  0 7.5  Z " stroke-width="2" stroke="#ff3300" fill="none" transform="matrix(1 0 0 1 1094 176 )" mask="url(#clip124)" />
  </g>
</svg>