<?xml version="1.0" encoding="utf-8"?>
<svg version="1.1" xmlns:xlink="http://www.w3.org/1999/xlink" width="16px" height="15px" xmlns="http://www.w3.org/2000/svg">
  <defs>
    <mask fill="white" id="clip125">
      <path d="M 0 7.5  C 0 3.30000000000001  3.51999999999995 0  8 0  C 12.48 0  16 3.30000000000001  16 7.5  C 16 11.7  12.48 15  8 15  C 3.70923202292397 15  0.299077398834318 11.9728915991095  0.0186477796234006 8.02721697097769  C 0.00628023506857668 7.85320430106162  0 7.67740502149127  0 7.5  Z " fill-rule="evenodd" />
    </mask>
  </defs>
  <g transform="matrix(1 0 0 1 -1485 -260 )">
    <path d="M 0 7.5  C 0 3.30000000000001  3.51999999999995 0  8 0  C 12.48 0  16 3.30000000000001  16 7.5  C 16 11.7  12.48 15  8 15  C 3.70923202292397 15  0.299077398834318 11.9728915991095  0.0186477796234006 8.02721697097769  C 0.00628023506857668 7.85320430106162  0 7.67740502149127  0 7.5  Z " fill-rule="nonzero" fill="#ff3300" stroke="none" transform="matrix(1 0 0 1 1485 260 )" />
    <path d="M 0 7.5  C 0 3.30000000000001  3.51999999999995 0  8 0  C 12.48 0  16 3.30000000000001  16 7.5  C 16 11.7  12.48 15  8 15  C 3.70923202292397 15  0.299077398834318 11.9728915991095  0.0186477796234006 8.02721697097769  C 0.00628023506857668 7.85320430106162  0 7.67740502149127  0 7.5  Z " stroke-width="2" stroke="#ff3300" fill="none" transform="matrix(1 0 0 1 1485 260 )" mask="url(#clip125)" />
  </g>
</svg>