<?xml version="1.0" encoding="utf-8"?>
<svg version="1.1" xmlns:xlink="http://www.w3.org/1999/xlink" width="15px" height="15px" xmlns="http://www.w3.org/2000/svg">
  <defs>
    <mask fill="white" id="clip128">
      <path d="M 0 7.5  C 0 3.30000000000001  3.29999999999995 0  7.5 0  C 11.7 0  15 3.30000000000001  15 7.5  C 15 11.7  11.7 15  7.5 15  C 3.70188385599454 15  0.639772112160244 12.3013171993725  0.088541082369602 8.6788279119898  C 0.0302145743332858 8.29552737353464  0 7.90188385599458  0 7.5  Z " fill-rule="evenodd" />
    </mask>
  </defs>
  <g transform="matrix(1 0 0 1 -1934 -434 )">
    <path d="M 0 7.5  C 0 3.30000000000001  3.29999999999995 0  7.5 0  C 11.7 0  15 3.30000000000001  15 7.5  C 15 11.7  11.7 15  7.5 15  C 3.70188385599454 15  0.639772112160244 12.3013171993725  0.088541082369602 8.6788279119898  C 0.0302145743332858 8.29552737353464  0 7.90188385599458  0 7.5  Z " fill-rule="nonzero" fill="#ff3300" stroke="none" transform="matrix(1 0 0 1 1934 434 )" />
    <path d="M 0 7.5  C 0 3.30000000000001  3.29999999999995 0  7.5 0  C 11.7 0  15 3.30000000000001  15 7.5  C 15 11.7  11.7 15  7.5 15  C 3.70188385599454 15  0.639772112160244 12.3013171993725  0.088541082369602 8.6788279119898  C 0.0302145743332858 8.29552737353464  0 7.90188385599458  0 7.5  Z " stroke-width="2" stroke="#ff3300" fill="none" transform="matrix(1 0 0 1 1934 434 )" mask="url(#clip128)" />
  </g>
</svg>