<?xml version="1.0" encoding="utf-8"?>
<svg version="1.1" xmlns:xlink="http://www.w3.org/1999/xlink" width="15px" height="15px" xmlns="http://www.w3.org/2000/svg">
  <defs>
    <mask fill="white" id="clip129">
      <path d="M 0 7.5  C 0 3.29999999999995  3.29999999999995 0  7.5 0  C 11.7 0  15 3.29999999999995  15 7.5  C 15 11.7  11.7 15  7.5 15  C 5.55691502881336 15  3.80646164973132 14.2936841622829  2.48629037170281 13.1187029957975  C 1.22594462742609 11.9969678562506  0.357766852439909 10.4480814831063  0.088541082369602 8.67882791198986  C 0.0302145743332858 8.2955273735347  0 7.90188385599458  0 7.5  Z " fill-rule="evenodd" />
    </mask>
  </defs>
  <g transform="matrix(1 0 0 1 -1934 -1109 )">
    <path d="M 0 7.5  C 0 3.29999999999995  3.29999999999995 0  7.5 0  C 11.7 0  15 3.29999999999995  15 7.5  C 15 11.7  11.7 15  7.5 15  C 5.55691502881336 15  3.80646164973132 14.2936841622829  2.48629037170281 13.1187029957975  C 1.22594462742609 11.9969678562506  0.357766852439909 10.4480814831063  0.088541082369602 8.67882791198986  C 0.0302145743332858 8.2955273735347  0 7.90188385599458  0 7.5  Z " fill-rule="nonzero" fill="#ff3300" stroke="none" transform="matrix(1 0 0 1 1934 1109 )" />
    <path d="M 0 7.5  C 0 3.29999999999995  3.29999999999995 0  7.5 0  C 11.7 0  15 3.29999999999995  15 7.5  C 15 11.7  11.7 15  7.5 15  C 5.55691502881336 15  3.80646164973132 14.2936841622829  2.48629037170281 13.1187029957975  C 1.22594462742609 11.9969678562506  0.357766852439909 10.4480814831063  0.088541082369602 8.67882791198986  C 0.0302145743332858 8.2955273735347  0 7.90188385599458  0 7.5  Z " stroke-width="2" stroke="#ff3300" fill="none" transform="matrix(1 0 0 1 1934 1109 )" mask="url(#clip129)" />
  </g>
</svg>