<?xml version="1.0" encoding="utf-8"?>
<svg version="1.1" xmlns:xlink="http://www.w3.org/1999/xlink" width="136px" height="136px" xmlns="http://www.w3.org/2000/svg">
  <g transform="matrix(1 0 0 1 -1970 -1867 )">
    <path d="M 1970 1867  L 2106 1867  L 2106 2003  L 1970 2003  L 1970 1867  " fill-rule="nonzero" fill="#cccccc" stroke="none" />
    <path d="M 1980 1877  L 2096 1877  L 2096 1993  L 1980 1993  L 1980 1877  " fill-rule="nonzero" fill="#ffffff" stroke="none" />
    <path d="M 2050.92 1907.8  C 2045.208 1907.8  2040.72 1903.312  2040.72 1897.6  C 2040.72 1891.888  2045.208 1887.4  2050.92 1887.4  C 2056.632 1887.4  2061.12 1891.888  2061.12 1897.6  C 2061.12 1903.312  2056.632 1907.8  2050.92 1907.8  " fill-rule="nonzero" fill="#cccccc" stroke="none" />
    <path d="M 1984 1990  L 1984 1930.05  L 2011.25 1902.8  L 2049.4 1924.6  L 2071.2 1919.15  L 2093 1924.6  L 2093 1990  L 1984 1990  " fill-rule="nonzero" fill="#169bd5" stroke="none" />
  </g>
</svg>